<?xml version="1.0" encoding="UTF-8"?>
<svg id="Capa_1" data-name="Capa 1" xmlns="http://www.w3.org/2000/svg" viewBox="0 0 24 24">
  <defs>
    <style>
      .cls-1 {
        fill: #fff;
        stroke: #fff;
        stroke-miterlimit: 10;
      }
    </style>
  </defs>
  <path class="cls-1" d="M16.84,2.07c.23.02.89.16.89.16,1.94.49,3.49,2.03,3.99,3.96l.17.95v9.38l-.17.95c-.61,2.33-2.67,3.99-5.08,4.12-2.98.16-6.11-.12-9.11,0-2.39-.13-4.47-1.84-5.05-4.15l-.16-.89V7.11c.23-2.6,2.42-4.84,5.05-5.03,0,0,7.11-.22,9.47-.01ZM7.47,3.31c-2.11.17-3.8,1.91-3.93,4.01-.19,2.95.14,6.11,0,9.08.16,2.12,1.87,3.82,4,3.99h9.14c2.13-.16,3.84-1.87,4-3.99V7.28c-.17-2.16-1.9-3.86-4.07-3.99-2.98-.17-6.13.12-9.13,0h-.01Z"/>
  <path class="cls-1" d="M17,11.84c0,2.7-2.19,4.88-4.89,4.88s-4.89-2.19-4.89-4.88,2.19-4.88,4.89-4.88,4.89,2.19,4.89,4.88ZM15.77,11.84c0-2.02-1.64-3.66-3.67-3.66s-3.67,1.64-3.67,3.66,1.64,3.66,3.67,3.66,3.67-1.64,3.67-3.66Z"/>
  <circle class="cls-1" cx="17" cy="6.34" r="1.22"/>
</svg>