<?xml version="1.0" encoding="UTF-8"?>
<svg id="Capa_1" data-name="Capa 1" xmlns="http://www.w3.org/2000/svg" viewBox="0 0 512 512">
  <defs>
    <style>
      .cls-1 {
        fill: #fff;
      }
    </style>
  </defs>
  <path class="cls-1" d="M272.09,0l26.2,3.29c109.36,17.87,197.19,108.3,211.57,218.35.79,6.01.61,12.59,2.14,18.36v32c-1.54,5.76-1.35,12.35-2.14,18.36-14.61,110.25-102.01,200.23-211.57,218.35l-26.2,3.29h-31.99c-5.76-1.54-12.34-1.35-18.35-2.14C108.88,494.89,17.11,403.43,2.34,290.36c-.79-6.01-.61-12.59-2.14-18.36.46-10.58-.62-21.45,0-32C7.62,113.02,113.19,7.43,240.1,0h31.99ZM144.92,109.28c-39.62,4.72-38.68,62.16,2.74,64.7,51.76,3.19,50.49-71.05-2.74-64.7ZM406.04,387v-123.5c0-5.91-4.8-21.86-7.23-27.76-14.13-34.21-52.27-48.4-86.75-37.26-15.21,4.91-24.1,14.67-33.97,26.52v-26h-61.98v188h61.98v-106.5c0-24.07,22.77-42.89,46.26-34.28,11.07,4.06,19.71,18.87,19.71,30.28v110.5h61.98ZM119.15,199v188h62.98v-188h-62.98Z"/>
</svg>