<?xml version="1.0" encoding="UTF-8"?>
<svg id="Capa_1" data-name="Capa 1" xmlns="http://www.w3.org/2000/svg" viewBox="0 0 384 384">
  <defs>
    <style>
      .cls-1 {
        fill: #fff;
      }
    </style>
  </defs>
  <path class="cls-1" d="M84.6,19.69l213.52-.22c32.79,2.25,60.21,26.51,65.43,58.96,2.23,72.64.3,145.63.99,218.4-2.31,36.26-30.19,64.28-66.41,66.96l-211.52.04c-32.91-1.78-61.04-26.46-66.14-59-1.66-75.06-1.45-150.66-.11-225.75,4.71-31.95,31.94-57.1,64.25-59.39h0ZM300.75,71.11h-23.62l-71.25,88.31-71.25-88.31H55.5l110.13,137.49-82.38,103.54h23.62l71.25-88.31,71.25,88.31h79.12l-110.13-137.49,82.38-103.54h0Z"/>
  <polygon class="cls-1" points="288.75 293.43 258.38 293.43 95.25 89.82 125.62 89.82 288.75 293.43"/>
</svg>