<?xml version="1.0" encoding="UTF-8"?>
<svg id="Capa_1" data-name="Capa 1" xmlns="http://www.w3.org/2000/svg" viewBox="0 0 682.67 682.67">
  <defs>
    <style>
      .cls-1 {
        fill: #fff;
        stroke: #fff;
        stroke-miterlimit: 10;
        stroke-width: 9px;
      }
    </style>
  </defs>
  <path class="cls-1" d="M59.3,616.37l39.61-146.98C-12.03,270.07,135.76,28.43,364.63,40.52c139.92,7.39,259.3,125.53,266.91,265.71,12.34,227.22-222.12,375.41-422.76,270.62l-149.48,39.52h0ZM127.67,547.98l89.27-22.78c128.96,81.99,303.03,23.96,353.39-120.54,62.38-178.97-97.78-354.32-281.48-309.07-160.09,39.43-230.78,229.53-137.7,365.39l-23.49,87h0Z"/>
  <path class="cls-1" d="M240.11,194.4c4.55-.77,21.54-.99,25.57.25,1.96.6,4.63,3.23,5.93,4.87,5.04,6.35,22.94,50.51,26.12,60.25,2.52,7.71,1.52,9.55-2.34,16.31-4.28,7.51-16.69,18.81-19.27,25.11-2.88,7.04,6.01,18.06,10.11,24.06,20,29.28,49.4,53.9,82.12,67.83,6.27,2.67,13.68,7.49,19.67,2.01l26.25-32.53c5.49-4.41,13.3-.53,18.9,1.69,18.82,7.46,36.35,18.48,54.81,26.76,4.49,3.58,3.56,12.78,3.02,18.28-4.75,48.23-59.34,59.91-99.14,49.05-61.23-16.72-109.95-55.47-148.31-104.8-25.8-33.18-51.17-72.09-38.52-116.24,3.85-13.43,20.4-40.4,35.08-42.89h0Z"/>
</svg>